# xmcd
#
# Track frame offsets: 
#        150
#        14879
#        29794
#        40851
#        56613
#        71240
#        95200
#        109807
#        126671
#        143467
#        157320
#        170672
#
# Disc length: 2454 seconds
#
# Revision: 0
# Processed by: cddbd v1.5.2PL0 Copyright (c) Steve Scherf et al.
# Submitted via: ExactAudioCopy v0.95a5
#
DISCID=c109940c
DTITLE=Lonesome Traveler Bluegrass Band - Lonesome Traveler Bluegrass 
DTITLE=Band
DYEAR=2006
DGENRE=Bluegrass
TTITLE0=Winter's Come and Gone (by Gillian Welch)
TTITLE1=Tear My Stillhouse Down (by Gillian Welch)
TTITLE2=It Must Be You (by Dolly Parton)
TTITLE3=Ginseng Sullivan (by Norman Blake)
TTITLE4=Blue Moon of Kentucky (by Bill Monroe)
TTITLE5=Motherland (by Natalie Merchant)
TTITLE6=Deep in the Pines (by Dustin Scott)
TTITLE7=In My Life (by Jodi Boyce)
TTITLE8=Shady Grove/Swallowtail Gig (traditional)
TTITLE9=Molly and Tenbrooks (by Bill Monroe)
TTITLE10=Cactus is in Bloom (by Jimmie Rodgers)
TTITLE11=The Fisherman (by Leo Kottke)
EXTD=
EXTT0=
EXTT1=
EXTT2=
EXTT3=
EXTT4=
EXTT5=
EXTT6=
EXTT7=
EXTT8=
EXTT9=
EXTT10=
EXTT11=
PLAYORDER=
